<svg xmlns:dc="http://purl.org/dc/elements/1.1/" xmlns:cc="http://creativecommons.org/ns#" xmlns:rdf="http://www.w3.org/1999/02/22-rdf-syntax-ns#" xmlns:svg="http://www.w3.org/2000/svg" xmlns="http://www.w3.org/2000/svg" xmlns:sodipodi="http://sodipodi.sourceforge.net/DTD/sodipodi-0.dtd" xmlns:inkscape="http://www.inkscape.org/namespaces/inkscape" viewBox="0 0 16.933333 21.166666250000002" version="1.1" x="0px" y="0px"><g><path style="color:#000000;font-style:normal;font-variant:normal;font-weight:normal;font-stretch:normal;font-size:medium;line-height:normal;font-family:sans-serif;font-variant-ligatures:normal;font-variant-position:normal;font-variant-caps:normal;font-variant-numeric:normal;font-variant-alternates:normal;font-feature-settings:normal;text-indent:0;text-align:start;text-decoration:none;text-decoration-line:none;text-decoration-style:solid;text-decoration-color:#000000;letter-spacing:normal;word-spacing:normal;text-transform:none;writing-mode:lr-tb;direction:ltr;text-orientation:mixed;dominant-baseline:auto;baseline-shift:baseline;text-anchor:start;white-space:normal;shape-padding:0;clip-rule:nonzero;display:inline;overflow:visible;visibility:visible;opacity:1;isolation:auto;mix-blend-mode:normal;color-interpolation:sRGB;color-interpolation-filters:linearRGB;solid-color:#000000;solid-opacity:1;vector-effect:none;fill:#000000;fill-opacity:1;fill-rule:nonzero;stroke:none;stroke-width:2.00000119;stroke-linecap:round;stroke-linejoin:round;stroke-miterlimit:4;stroke-dasharray:none;stroke-dashoffset:0;stroke-opacity:1;color-rendering:auto;image-rendering:auto;shape-rendering:auto;text-rendering:auto;enable-background:accumulate" d="M 32.021484 2.0078125 C 31.444735 1.9900415 30.862324 2.0021527 30.275391 2.0429688 C 23.478945 2.5177455 17.782465 6.8975318 15.158203 12.955078 C 10.940919 12.752798 6.8920629 14.756584 4.3925781 18.330078 C 1.6209865 22.292603 1.226908 27.517149 3.3691406 31.873047 C 3.5037296 32.14676 3.6395282 32.40317 3.7910156 32.664062 C 2.7094847 33.382971 2.0058594 34.614987 2.0058594 36.001953 L 2.0058594 44.003906 C 2.0058594 45.201011 2.5159592 46.264845 3.3574219 46.998047 C 2.53158 47.725432 2.0058594 48.800942 2.0058594 49.998047 L 2.0058594 58 C 2.0058594 60.237824 3.8094242 62 6.0078125 62 L 47.996094 62 C 50.217916 62 52 60.198767 52 58 L 52 49.998047 C 51.999709 48.800942 51.460608 47.713716 50.642578 46.998047 C 51.460608 46.284381 51.997752 45.201015 51.998047 44.003906 L 52 38.984375 C 56.552974 38.766221 60.470135 35.533539 61.648438 30.951172 C 62.845856 26.294416 60.928844 21.256005 56.771484 18.771484 C 54.716241 17.540941 52.397925 17.098681 50.158203 17.404297 C 49.813699 17.451317 49.469482 17.511772 49.130859 17.59375 C 47.7837 8.7900697 40.537267 2.2696808 32.021484 2.0078125 z M 31.962891 4.0117188 C 39.583396 4.2433131 46.149867 10.180981 47.207031 18.267578 C 46.066449 18.797048 45.002995 19.546954 44.083984 20.5 C 43.140285 21.459943 44.598141 22.866394 45.523438 21.888672 C 48.249811 19.061317 52.415575 18.495363 55.744141 20.488281 C 59.072699 22.481203 60.714001 26.569034 59.710938 30.451172 C 58.750624 34.167785 55.626011 36.761824 52 36.976562 L 52 36.001953 C 52.000488 33.80319 50.225728 32 47.996094 32 L 6.0078125 32 C 5.9202405 32 5.8186329 32.000338 5.7324219 32.005859 C 5.5215998 31.673183 5.3411296 31.350272 5.1640625 30.990234 C 3.3447372 27.290923 3.6831767 22.833595 6.03125 19.476562 C 8.0187789 16.635008 11.139948 14.994704 14.431641 14.943359 C 13.898406 16.697646 13.609375 18.571277 13.609375 20.498047 C 13.579135 21.861318 15.639607 21.861318 15.609375 20.498047 C 15.609375 11.829711 22.093281 4.6243697 30.416016 4.0429688 C 30.936189 4.0066847 31.451651 3.9962227 31.962891 4.0117188 z M 18 34 L 20 34 L 20 46 L 18 46 L 18 34 z M 11 38 A 1.9999999 1.9999999 0 0 1 13 40 A 1.9999999 1.9999999 0 0 1 11 42 A 1.9999999 1.9999999 0 0 1 9 40 A 1.9999999 1.9999999 0 0 1 11 38 z M 23.001953 38.998047 L 45 38.998047 C 46.304107 39.026957 46.304107 40.969322 45 40.998047 L 23.001953 40.998047 C 21.697846 40.969137 21.697846 39.026771 23.001953 38.998047 z M 6.0078125 48 L 18 48 L 18 60 L 6.0078125 60 C 4.9100185 60 4.0078125 59.125328 4.0078125 58 L 4.0078125 49.998047 C 4.0078125 48.872719 4.9256393 48 6.0078125 48 z M 20.001953 48 L 47.996094 48 C 49.086076 48 49.999728 48.872719 50 49.998047 L 50 58 C 49.9921 59.105799 49.113417 60 47.996094 60 L 20.001953 60 L 20.001953 48 z " transform="scale(0.26458333)"/><path style="color:#000000;font-style:normal;font-variant:normal;font-weight:normal;font-stretch:normal;font-size:medium;line-height:normal;font-family:sans-serif;font-variant-ligatures:normal;font-variant-position:normal;font-variant-caps:normal;font-variant-numeric:normal;font-variant-alternates:normal;font-feature-settings:normal;text-indent:0;text-align:start;text-decoration:none;text-decoration-line:none;text-decoration-style:solid;text-decoration-color:#000000;letter-spacing:normal;word-spacing:normal;text-transform:none;writing-mode:lr-tb;direction:ltr;text-orientation:mixed;dominant-baseline:auto;baseline-shift:baseline;text-anchor:start;white-space:normal;shape-padding:0;clip-rule:nonzero;display:inline;overflow:visible;visibility:visible;opacity:1;isolation:auto;mix-blend-mode:normal;color-interpolation:sRGB;color-interpolation-filters:linearRGB;solid-color:#000000;solid-opacity:1;vector-effect:none;fill:#000000;fill-opacity:1;fill-rule:nonzero;stroke:none;stroke-width:0.529167;stroke-linecap:round;stroke-linejoin:round;stroke-miterlimit:4;stroke-dasharray:none;stroke-dashoffset:0;stroke-opacity:1;color-rendering:auto;image-rendering:auto;shape-rendering:auto;text-rendering:auto;enable-background:accumulate" d="m 8.2010336,3.439604 v 1.0567831 h -1.059884 c -0.3535975,-4.76e-4 -0.3535975,0.5301589 0,0.5296829 h 1.059884 v 1.059884 c -0.00802,0.360708 0.5371861,0.360708 0.5291661,0 V 5.02607 H 9.7874992 C 9.9360505,5.0278066 10.05692,4.9069373 10.055184,4.758386 10.05375,4.6120598 9.9338225,4.4946795 9.7874992,4.4963871 H 8.7301997 V 3.439604 C 8.7319303,3.2912577 8.6113811,3.1704757 8.4630322,3.1719201 8.3167068,3.1733538 8.1993265,3.2932809 8.2010336,3.439604 Z"/><path style="color:#000000;font-style:normal;font-variant:normal;font-weight:normal;font-stretch:normal;font-size:medium;line-height:normal;font-family:sans-serif;font-variant-ligatures:normal;font-variant-position:normal;font-variant-caps:normal;font-variant-numeric:normal;font-variant-alternates:normal;font-feature-settings:normal;text-indent:0;text-align:start;text-decoration:none;text-decoration-line:none;text-decoration-style:solid;text-decoration-color:#000000;letter-spacing:normal;word-spacing:normal;text-transform:none;writing-mode:lr-tb;direction:ltr;text-orientation:mixed;dominant-baseline:auto;baseline-shift:baseline;text-anchor:start;white-space:normal;shape-padding:0;clip-rule:nonzero;display:inline;overflow:visible;visibility:visible;opacity:1;isolation:auto;mix-blend-mode:normal;color-interpolation:sRGB;color-interpolation-filters:linearRGB;solid-color:#000000;solid-opacity:1;vector-effect:none;fill:#000000;fill-opacity:1;fill-rule:nonzero;stroke:none;stroke-width:0.529167;stroke-linecap:round;stroke-linejoin:round;stroke-miterlimit:4;stroke-dasharray:none;stroke-dashoffset:0;stroke-opacity:1;color-rendering:auto;image-rendering:auto;shape-rendering:auto;text-rendering:auto;enable-background:accumulate" d="m 2.9109178,13.494286 c -0.440346,0 -0.792715,0.357462 -0.792716,0.792717 0,0.435255 0.350302,0.7953 0.792716,0.7953 0.4424151,0 0.794784,-0.360045 0.794784,-0.7953 -1.1e-6,-0.435255 -0.3544369,-0.792717 -0.794784,-0.792717 z"/><path style="color:#000000;font-style:normal;font-variant:normal;font-weight:normal;font-stretch:normal;font-size:medium;line-height:normal;font-family:sans-serif;font-variant-ligatures:normal;font-variant-position:normal;font-variant-caps:normal;font-variant-numeric:normal;font-variant-alternates:normal;font-feature-settings:normal;text-indent:0;text-align:start;text-decoration:none;text-decoration-line:none;text-decoration-style:solid;text-decoration-color:#000000;letter-spacing:normal;word-spacing:normal;text-transform:none;writing-mode:lr-tb;direction:ltr;text-orientation:mixed;dominant-baseline:auto;baseline-shift:baseline;text-anchor:start;white-space:normal;shape-padding:0;clip-rule:nonzero;display:inline;overflow:visible;visibility:visible;opacity:1;isolation:auto;mix-blend-mode:normal;color-interpolation:sRGB;color-interpolation-filters:linearRGB;solid-color:#000000;solid-opacity:1;vector-effect:none;fill:#000000;fill-opacity:1;fill-rule:nonzero;stroke:none;stroke-width:0.529167;stroke-linecap:round;stroke-linejoin:round;stroke-miterlimit:4;stroke-dasharray:none;stroke-dashoffset:0;stroke-opacity:1;color-rendering:auto;image-rendering:auto;shape-rendering:auto;text-rendering:auto;enable-background:accumulate" d="m 6.0786838,14.023453 c -0.3606841,-0.008 -0.3606841,0.537162 0,0.529167 h 5.8203172 c 0.360684,0.008 0.360684,-0.537162 0,-0.529167 z"/></g><text x="0" y="31.933333" fill="#000000" font-size="5px" font-weight="bold" font-family="'Helvetica Neue', Helvetica, Arial-Unicode, Arial, Sans-serif">Created by Aficons</text><text x="0" y="36.933333000000005" fill="#000000" font-size="5px" font-weight="bold" font-family="'Helvetica Neue', Helvetica, Arial-Unicode, Arial, Sans-serif">from the Noun Project</text></svg>