<svg xmlns="http://www.w3.org/2000/svg" viewBox="0 0 120 150" x="0px" y="0px"><title>267 Serverless</title><path d="M72,93l3.72-3.72H74a2,2,0,0,0-2,2Z"/><path d="M96,89.25H78.56l-5.67,5.67a2,2,0,0,0,1.11.33H96a2,2,0,0,0,2-2v-2A2,2,0,0,0,96,89.25Zm-9,4a1,1,0,1,1,1-1A1,1,0,0,1,87,93.25Zm4,0a1,1,0,1,1,1-1A1,1,0,0,1,91,93.25Zm4,0a1,1,0,1,1,1-1A1,1,0,0,1,95,93.25Z"/><path d="M96,81.25H86.56l-6,6H96a2,2,0,0,0,2-2v-2A2,2,0,0,0,96,81.25Zm-9,4a1,1,0,1,1,1-1A1,1,0,0,1,87,85.25Zm4,0a1,1,0,1,1,1-1A1,1,0,0,1,91,85.25Zm4,0a1,1,0,1,1,1-1A1,1,0,0,1,95,85.25Z"/><path d="M72,85.25a2,2,0,0,0,2,2h3.72l6-6H74a2,2,0,0,0-2,2Z"/><path d="M74,79.25H85.72l6-6H74a2,2,0,0,0-2,2v2A2,2,0,0,0,74,79.25Zm13-4a1,1,0,1,1-1,1A1,1,0,0,1,87,75.25Z"/><path d="M91,54.75H90a30,30,0,0,0-60,0H29a19,19,0,0,0-19,19h0a19,19,0,0,0,19,19H70v-1.5a4,4,0,0,1,1.38-3,4,4,0,0,1-1.38-3v-2a4,4,0,0,1,1.37-3h0a4,4,0,0,1-1.36-3v-2a4,4,0,0,1,4-4H96a2.93,2.93,0,0,1,.51,0,4,4,0,0,1,3.49,4v2a4,4,0,0,1-1.36,3h0a4,4,0,0,1,1.37,3v2a4,4,0,0,1-1.38,3,4,4,0,0,1,1.3,2.27A19,19,0,0,0,110,73.75h0A19,19,0,0,0,91,54.75Z"/><path d="M96,73.25H94.56l-2.63,2.63a1.16,1.16,0,0,1,.07.37,1,1,0,0,1-1,1,1.16,1.16,0,0,1-.37-.07l-2.07,2.07H96a2,2,0,0,0,2-2v-2A2,2,0,0,0,96,73.25Zm-1,4a1,1,0,1,1,1-1A1,1,0,0,1,95,77.25Z"/><text x="0" y="135" fill="#000000" font-size="5px" font-weight="bold" font-family="'Helvetica Neue', Helvetica, Arial-Unicode, Arial, Sans-serif">Created by Jae Deasigner</text><text x="0" y="140" fill="#000000" font-size="5px" font-weight="bold" font-family="'Helvetica Neue', Helvetica, Arial-Unicode, Arial, Sans-serif">from the Noun Project</text></svg>